<mxfile host="app.diagrams.net" modified="2024-04-19T13:15:02.339Z" agent="Mozilla/5.0 (Macintosh; Intel Mac OS X 10_15_7) AppleWebKit/537.36 (KHTML, like Gecko) Chrome/124.0.0.0 Safari/537.36" version="24.2.5" etag="BtEOx7b_p3ejw7pry6Fd" type="github">
  <diagram name="Page-1" id="0pAUfIbuarw7BCLfqtbN">
    <mxGraphModel>
      <root>
        <mxCell id="0" />
        <mxCell id="1" parent="0" />
      </root>
    </mxGraphModel>
  </diagram>
</mxfile>
